<svg width="968" height="348" viewBox="0 0 968 348" fill="none" xmlns="http://www.w3.org/2000/svg">
<g clip-path="url(#clip0_958_290)">
<path d="M943.312 223.091C943.312 257.366 915.527 285.151 881.252 285.151C846.977 285.151 819.192 257.366 819.192 223.091C819.192 188.816 846.977 161.031 881.252 161.031C915.527 161.031 943.312 188.816 943.312 223.091Z" fill="url(#paint0_linear_958_290)"/>
<path d="M587.449 259.522C587.449 269.121 579.667 276.903 570.068 276.903C560.469 276.903 552.688 269.121 552.688 259.522C552.688 249.923 560.469 242.141 570.068 242.141C579.667 242.141 587.449 249.923 587.449 259.522Z" fill="url(#paint1_linear_958_290)"/>
<path d="M640.342 252.455L857.802 165.624L870.36 284.188L640.342 252.455Z" fill="url(#paint2_linear_958_290)"/>
<path d="M640.359 252.453L575.183 276.142L572.329 242.29L640.359 252.453Z" fill="url(#paint3_linear_958_290)"/>
<path d="M174.641 194.891H137.961V257H102.102V84.2656H177.336C194.68 84.2656 208.508 88.7188 218.82 97.625C229.133 106.531 234.289 120.32 234.289 138.992C234.289 159.383 229.133 173.797 218.82 182.234C208.508 190.672 193.781 194.891 174.641 194.891ZM191.516 158.914C196.203 154.773 198.547 148.211 198.547 139.227C198.547 130.242 196.164 123.836 191.398 120.008C186.711 116.18 180.109 114.266 171.594 114.266H137.961V165.125H171.594C180.109 165.125 186.75 163.055 191.516 158.914ZM322.883 160.086C309.445 160.086 300.422 164.461 295.812 173.211C293.234 178.133 291.945 185.711 291.945 195.945V257H258.312V129.266H290.188V151.531C295.344 143.016 299.836 137.195 303.664 134.07C309.914 128.836 318.039 126.219 328.039 126.219C328.664 126.219 329.172 126.258 329.562 126.336C330.031 126.336 331.008 126.375 332.492 126.453V160.672C330.383 160.438 328.508 160.281 326.867 160.203C325.227 160.125 323.898 160.086 322.883 160.086ZM356.984 143.094C365.812 131.844 380.969 126.219 402.453 126.219C416.438 126.219 428.859 128.992 439.719 134.539C450.578 140.086 456.008 150.555 456.008 165.945V224.539C456.008 228.602 456.086 233.523 456.242 239.305C456.477 243.68 457.141 246.648 458.234 248.211C459.328 249.773 460.969 251.062 463.156 252.078V257H426.828C425.812 254.422 425.109 252 424.719 249.734C424.328 247.469 424.016 244.891 423.781 242C419.172 247 413.859 251.258 407.844 254.773C400.656 258.914 392.531 260.984 383.469 260.984C371.906 260.984 362.336 257.703 354.758 251.141C347.258 244.5 343.508 235.125 343.508 223.016C343.508 207.312 349.562 195.945 361.672 188.914C368.312 185.086 378.078 182.352 390.969 180.711L402.336 179.305C408.508 178.523 412.922 177.547 415.578 176.375C420.344 174.344 422.727 171.18 422.727 166.883C422.727 161.648 420.891 158.055 417.219 156.102C413.625 154.07 408.312 153.055 401.281 153.055C393.391 153.055 387.805 155.008 384.523 158.914C382.18 161.805 380.617 165.711 379.836 170.633H347.609C348.312 159.461 351.438 150.281 356.984 143.094ZM381.828 232.859C384.953 235.438 388.781 236.727 393.312 236.727C400.5 236.727 407.102 234.617 413.117 230.398C419.211 226.18 422.375 218.484 422.609 207.312V194.891C420.5 196.219 418.352 197.312 416.164 198.172C414.055 198.953 411.125 199.695 407.375 200.398L399.875 201.805C392.844 203.055 387.805 204.578 384.758 206.375C379.602 209.422 377.023 214.148 377.023 220.555C377.023 226.258 378.625 230.359 381.828 232.859ZM545.891 153.992C534.562 153.992 526.789 158.797 522.57 168.406C520.383 173.484 519.289 179.969 519.289 187.859V257H486.008V129.5H518.234V148.133C522.531 141.57 526.594 136.844 530.422 133.953C537.297 128.797 546.008 126.219 556.555 126.219C569.758 126.219 580.539 129.695 588.898 136.648C597.336 143.523 601.555 154.969 601.555 170.984V257H567.336V179.305C567.336 172.586 566.438 167.43 564.641 163.836C561.359 157.273 555.109 153.992 545.891 153.992ZM637.297 143.094C646.125 131.844 661.281 126.219 682.766 126.219C696.75 126.219 709.172 128.992 720.031 134.539C730.891 140.086 736.32 150.555 736.32 165.945V224.539C736.32 228.602 736.398 233.523 736.555 239.305C736.789 243.68 737.453 246.648 738.547 248.211C739.641 249.773 741.281 251.062 743.469 252.078V257H707.141C706.125 254.422 705.422 252 705.031 249.734C704.641 247.469 704.328 244.891 704.094 242C699.484 247 694.172 251.258 688.156 254.773C680.969 258.914 672.844 260.984 663.781 260.984C652.219 260.984 642.648 257.703 635.07 251.141C627.57 244.5 623.82 235.125 623.82 223.016C623.82 207.312 629.875 195.945 641.984 188.914C648.625 185.086 658.391 182.352 671.281 180.711L682.648 179.305C688.82 178.523 693.234 177.547 695.891 176.375C700.656 174.344 703.039 171.18 703.039 166.883C703.039 161.648 701.203 158.055 697.531 156.102C693.938 154.07 688.625 153.055 681.594 153.055C673.703 153.055 668.117 155.008 664.836 158.914C662.492 161.805 660.93 165.711 660.148 170.633H627.922C628.625 159.461 631.75 150.281 637.297 143.094ZM662.141 232.859C665.266 235.438 669.094 236.727 673.625 236.727C680.812 236.727 687.414 234.617 693.43 230.398C699.523 226.18 702.688 218.484 702.922 207.312V194.891C700.812 196.219 698.664 197.312 696.477 198.172C694.367 198.953 691.438 199.695 687.688 200.398L680.188 201.805C673.156 203.055 668.117 204.578 665.07 206.375C659.914 209.422 657.336 214.148 657.336 220.555C657.336 226.258 658.938 230.359 662.141 232.859ZM753.547 129.266H791.047L817.648 223.484L844.836 129.266H880.695L834.641 257H799.367L753.547 129.266Z" fill="white"/>
</g>
<defs>
<linearGradient id="paint0_linear_958_290" x1="552.687" y1="264.158" x2="949.608" y2="216.256" gradientUnits="userSpaceOnUse">
<stop stop-color="#F228D7"/>
<stop offset="1" stop-color="#E4AD2D"/>
</linearGradient>
<linearGradient id="paint1_linear_958_290" x1="552.687" y1="264.158" x2="949.608" y2="216.256" gradientUnits="userSpaceOnUse">
<stop stop-color="#F228D7"/>
<stop offset="1" stop-color="#E4AD2D"/>
</linearGradient>
<linearGradient id="paint2_linear_958_290" x1="552.687" y1="264.158" x2="949.608" y2="216.256" gradientUnits="userSpaceOnUse">
<stop stop-color="#F228D7"/>
<stop offset="1" stop-color="#E4AD2D"/>
</linearGradient>
<linearGradient id="paint3_linear_958_290" x1="552.687" y1="264.158" x2="949.608" y2="216.256" gradientUnits="userSpaceOnUse">
<stop stop-color="#F228D7"/>
<stop offset="1" stop-color="#E4AD2D"/>
</linearGradient>
<clipPath id="clip0_958_290">
<rect width="968" height="348" fill="white"/>
</clipPath>
</defs>
</svg>
